<?xml version="1.0" standalone="no"?>
<!DOCTYPE svg PUBLIC "-//W3C//DTD SVG 20010904//EN"
 "http://www.w3.org/TR/2001/REC-SVG-20010904/DTD/svg10.dtd">
<svg version="1.0" xmlns="http://www.w3.org/2000/svg"
 width="90.000000pt" height="90.000000pt" viewBox="0 0 90.000000 90.000000"
 preserveAspectRatio="xMidYMid meet">
<metadata>
Created by potrace 1.14, written by Peter Selinger 2001-2017
</metadata>
<g transform="translate(0.000000,90.000000) scale(0.100000,-0.100000)"
fill="#000000" stroke="none">
<path d="M419 733 c-22 -6 -39 -46 -33 -80 2 -15 14 -50 25 -77 15 -36 20 -63
16 -95 -5 -43 -4 -44 9 -21 19 35 17 55 -10 132 -28 78 -24 116 11 124 16 4
28 2 34 -7 14 -22 11 -39 -7 -39 -8 0 -12 -5 -9 -10 10 -16 35 8 35 34 0 38
-25 52 -71 39z"/>
<path d="M308 584 c2 -13 17 -35 34 -49 16 -13 35 -39 43 -57 l14 -33 1 30 c0
23 -12 43 -48 81 -40 42 -48 47 -44 28z"/>
<path d="M502 568 c-5 -7 -13 -31 -16 -53 -4 -22 -13 -50 -21 -62 -23 -34 -18
-39 10 -9 13 14 27 43 30 64 4 20 9 45 12 55 5 20 0 22 -15 5z"/>
<path d="M323 392 c-85 -3 -93 -4 -93 -23 0 -46 77 -149 112 -149 6 0 9 -3 6
-6 -4 -3 -16 -1 -27 6 -24 12 -65 -3 -58 -23 9 -29 201 -42 282 -19 35 10 39
32 8 47 -17 9 -20 14 -11 23 7 7 18 12 26 12 49 0 118 84 93 114 -13 16 -156
24 -338 18z m314 -55 c-7 -11 -23 -27 -36 -35 -22 -15 -22 -15 -10 14 15 34
38 56 51 48 5 -3 3 -15 -5 -27z"/>
</g>
</svg>
